<svg xmlns="http://www.w3.org/2000/svg" viewBox="0 0 400 300">
  <defs>
    <linearGradient id="screenGrad" x1="0%" y1="0%" x2="100%" y2="100%">
      <stop offset="0%" style="stop-color:#1a1a2e"/>
      <stop offset="100%" style="stop-color:#0f0f1a"/>
    </linearGradient>
  </defs>
  
  <!-- Desk -->
  <rect x="20" y="240" width="360" height="20" rx="5" fill="#2a2a2a"/>
  <rect x="30" y="255" width="340" height="40" rx="3" fill="#1e1e1e"/>
  
  <!-- Monitor Stand -->
  <rect x="175" y="200" width="50" height="40" fill="#3a3a3a"/>
  <rect x="150" y="235" width="100" height="8" rx="2" fill="#2a2a2a"/>
  
  <!-- Monitor -->
  <rect x="60" y="40" width="280" height="165" rx="8" fill="#2a2a2a"/>
  <rect x="70" y="50" width="260" height="140" rx="4" fill="url(#screenGrad)"/>
  
  <!-- Code Lines on Screen -->
  <rect x="85" y="65" width="80" height="8" rx="2" fill="#ff6b6b" opacity="0.9"/>
  <rect x="85" y="80" width="120" height="6" rx="2" fill="#a0a0a0" opacity="0.5"/>
  <rect x="95" y="95" width="150" height="6" rx="2" fill="#00d4aa" opacity="0.8"/>
  <rect x="95" y="110" width="100" height="6" rx="2" fill="#a0a0a0" opacity="0.4"/>
  <rect x="95" y="125" width="130" height="6" rx="2" fill="#ffd93d" opacity="0.7"/>
  <rect x="85" y="140" width="60" height="6" rx="2" fill="#e040fb" opacity="0.6"/>
  <rect x="85" y="155" width="180" height="6" rx="2" fill="#a0a0a0" opacity="0.3"/>
  <rect x="95" y="170" width="90" height="6" rx="2" fill="#00d4aa" opacity="0.5"/>
  
  <!-- Terminal on right side of screen -->
  <rect x="250" y="65" width="70" height="80" rx="3" fill="#1a1a1a"/>
  <rect x="255" y="75" width="40" height="4" rx="1" fill="#00d4aa" opacity="0.8"/>
  <rect x="255" y="85" width="55" height="4" rx="1" fill="#faf8f5" opacity="0.4"/>
  <rect x="255" y="95" width="35" height="4" rx="1" fill="#faf8f5" opacity="0.3"/>
  <rect x="255" y="105" width="50" height="4" rx="1" fill="#ff6b6b" opacity="0.6"/>
  
  <!-- Coffee Mug -->
  <ellipse cx="350" cy="235" rx="18" ry="6" fill="#3a3a3a"/>
  <rect x="332" y="205" width="36" height="30" rx="3" fill="#ff6b6b"/>
  <ellipse cx="350" cy="205" rx="18" ry="6" fill="#ff8585"/>
  <path d="M368 215 Q380 220 368 230" stroke="#ff6b6b" stroke-width="4" fill="none"/>
  
  <!-- Plant -->
  <rect x="40" y="210" width="25" height="30" rx="3" fill="#2a2a2a"/>
  <ellipse cx="52" cy="200" rx="20" ry="15" fill="#00d4aa" opacity="0.8"/>
  <ellipse cx="45" cy="190" rx="12" ry="10" fill="#00d4aa" opacity="0.6"/>
  <ellipse cx="60" cy="195" rx="10" ry="8" fill="#00d4aa" opacity="0.7"/>
  
  <!-- Keyboard -->
  <rect x="140" y="265" width="120" height="20" rx="3" fill="#3a3a3a"/>
  <rect x="145" y="268" width="110" height="14" rx="2" fill="#2a2a2a"/>
  
  <!-- Mouse -->
  <ellipse cx="290" cy="275" rx="12" ry="8" fill="#3a3a3a"/>
</svg>
